<svg version="1.1" xmlns="http://www.w3.org/2000/svg" viewBox="0 0 2334.999999999999 1380.0000000000005" width="7004.999999999997" height="4140.000000000002">
  <!-- svg-source:excalidraw -->
  
  <defs>
    <style class="style-fonts">
      @font-face {
        font-family: "Virgil";
        src: url("https://excalidraw.com/Virgil.woff2");
      }
      @font-face {
        font-family: "Cascadia";
        src: url("https://excalidraw.com/Cascadia.woff2");
      }
    </style>
  </defs>
  <rect x="0" y="0" width="2334.999999999999" height="1380.0000000000005" fill="#ffffff"></rect><g stroke-linecap="round" transform="translate(211.60119047618923 821.2857142857142) rotate(0 131.5 40)"><path d="M0.67 1.17 C67.28 -0.83, 132.3 -1.18, 261.94 -0.09 M-0.73 -0.08 C90.2 -0.09, 179.62 -0.33, 262.92 -0.67 M263.67 -0.77 C263.17 15.73, 261.74 34.02, 263.61 80.98 M263.85 -0.63 C262.63 16.73, 261.9 34.66, 262.77 80.66 M262.56 80.14 C179.41 80.6, 93.15 79.56, 1.34 81.39 M262.31 80.33 C194 81, 125.35 81.03, 0.57 79.49 M-1.32 81.85 C-2.7 49.08, 0.17 21.91, 0.64 1.94 M0.11 79.24 C0.61 54.22, -0.53 31.08, 0.7 0.44" stroke="#000000" stroke-width="1" fill="none"></path></g><g transform="translate(291.3691805884939 838.7857142857142) rotate(0 51.73200988769531 22.5)"><text x="51.73200988769531" y="0" font-family="Virgil, Segoe UI Emoji" font-size="36px" fill="#000000" text-anchor="middle" style="white-space: pre;" direction="ltr" dominant-baseline="text-before-edge">1. Find</text></g><g stroke-linecap="round" transform="translate(580.9583333333323 822.0000000000005) rotate(0 131.5 40)"><path d="M0.67 1.17 C67.28 -0.83, 132.3 -1.18, 261.94 -0.09 M-0.73 -0.08 C90.2 -0.09, 179.62 -0.33, 262.92 -0.67 M263.67 -0.77 C263.17 15.73, 261.74 34.02, 263.61 80.98 M263.85 -0.63 C262.63 16.73, 261.9 34.66, 262.77 80.66 M262.56 80.14 C179.41 80.6, 93.15 79.56, 1.34 81.39 M262.31 80.33 C194 81, 125.35 81.03, 0.57 79.49 M-1.32 81.85 C-2.7 49.08, 0.17 21.91, 0.64 1.94 M0.11 79.24 C0.61 54.22, -0.53 31.08, 0.7 0.44" stroke="#000000" stroke-width="1" fill="none"></path></g><g transform="translate(642.7083180745433 839.5000000000005) rotate(0 69.75001525878906 22.5)"><text x="69.75001525878906" y="0" font-family="Virgil, Segoe UI Emoji" font-size="36px" fill="#000000" text-anchor="middle" style="white-space: pre;" direction="ltr" dominant-baseline="text-before-edge">2. Load</text></g><g stroke-linecap="round" transform="translate(1005.2440476190466 720.571428571428) rotate(0 140.5 40)"><path d="M0.64 1.13 C71.82 -0.83, 141.45 -1.17, 279.98 -0.09 M-0.7 -0.07 C96.35 -0.06, 191.96 -0.28, 280.93 -0.64 M281.67 -0.77 C281.17 15.73, 279.74 34.02, 281.61 80.98 M281.85 -0.63 C280.63 16.73, 279.9 34.66, 280.77 80.66 M280.58 80.13 C191.59 80.62, 99.61 79.62, 1.28 81.34 M280.34 80.32 C207.28 80.98, 133.89 81.01, 0.55 79.51 M-1.32 81.85 C-2.7 49.08, 0.17 21.91, 0.64 1.94 M0.11 79.24 C0.61 54.22, -0.53 31.08, 0.7 0.44" stroke="#000000" stroke-width="1" fill="none"></path></g><g transform="translate(1045.9340195428747 738.071428571428) rotate(0 99.81002807617188 22.5)"><text x="99.81002807617188" y="0" font-family="Virgil, Segoe UI Emoji" font-size="36px" fill="#000000" text-anchor="middle" style="white-space: pre;" direction="ltr" dominant-baseline="text-before-edge">3a. Format</text></g><g stroke-linecap="round" transform="translate(1007.6726190476181 913.4285714285711) rotate(0 140.5 40)"><path d="M0.64 1.13 C71.82 -0.83, 141.45 -1.17, 279.98 -0.09 M-0.7 -0.07 C96.35 -0.06, 191.96 -0.28, 280.93 -0.64 M281.67 -0.77 C281.17 15.73, 279.74 34.02, 281.61 80.98 M281.85 -0.63 C280.63 16.73, 279.9 34.66, 280.77 80.66 M280.58 80.13 C191.59 80.62, 99.61 79.62, 1.28 81.34 M280.34 80.32 C207.28 80.98, 133.89 81.01, 0.55 79.51 M-1.32 81.85 C-2.7 49.08, 0.17 21.91, 0.64 1.94 M0.11 79.24 C0.61 54.22, -0.53 31.08, 0.7 0.44" stroke="#000000" stroke-width="1" fill="none"></path></g><g transform="translate(1039.6145898728134 930.9285714285711) rotate(0 108.55802917480469 22.5)"><text x="108.55802917480469" y="0" font-family="Virgil, Segoe UI Emoji" font-size="36px" fill="#000000" text-anchor="middle" style="white-space: pre;" direction="ltr" dominant-baseline="text-before-edge">3b. Measure</text></g><g stroke-linecap="round" transform="translate(1468.4226190476177 819.5000000000005) rotate(0 131.5 40)"><path d="M0.67 1.17 C67.28 -0.83, 132.3 -1.18, 261.94 -0.09 M-0.73 -0.08 C90.2 -0.09, 179.62 -0.33, 262.92 -0.67 M263.67 -0.77 C263.17 15.73, 261.74 34.02, 263.61 80.98 M263.85 -0.63 C262.63 16.73, 261.9 34.66, 262.77 80.66 M262.56 80.14 C179.41 80.6, 93.15 79.56, 1.34 81.39 M262.31 80.33 C194 81, 125.35 81.03, 0.57 79.49 M-1.32 81.85 C-2.7 49.08, 0.17 21.91, 0.64 1.94 M0.11 79.24 C0.61 54.22, -0.53 31.08, 0.7 0.44" stroke="#000000" stroke-width="1" fill="none"></path></g><g transform="translate(1538.7945978073833 837.0000000000005) rotate(0 61.128021240234375 22.5)"><text x="61.128021240234375" y="0" font-family="Virgil, Segoe UI Emoji" font-size="36px" fill="#000000" text-anchor="middle" style="white-space: pre;" direction="ltr" dominant-baseline="text-before-edge">4. Bind</text></g><g stroke-linecap="round" transform="translate(1842.065476190475 820.2142857142849) rotate(0 131.5 40)"><path d="M1.88 1.68 L263.72 -1.71 L264.37 79.98 L-0.48 79.87" stroke="none" stroke-width="0" fill="#fab005"></path><path d="M0.67 1.17 C67.28 -0.83, 132.3 -1.18, 261.94 -0.09 M-0.73 -0.08 C90.2 -0.09, 179.62 -0.33, 262.92 -0.67 M263.67 -0.77 C263.17 15.73, 261.74 34.02, 263.61 80.98 M263.85 -0.63 C262.63 16.73, 261.9 34.66, 262.77 80.66 M262.56 80.14 C179.41 80.6, 93.15 79.56, 1.34 81.39 M262.31 80.33 C194 81, 125.35 81.03, 0.57 79.49 M-1.32 81.85 C-2.7 49.08, 0.17 21.91, 0.64 1.94 M0.11 79.24 C0.61 54.22, -0.53 31.08, 0.7 0.44" stroke="#000000" stroke-width="1" fill="none"></path></g><g transform="translate(1901.9434592837367 837.7142857142849) rotate(0 71.62201690673828 22.5)"><text x="71.62201690673828" y="0" font-family="Virgil, Segoe UI Emoji" font-size="36px" fill="#000000" text-anchor="middle" style="white-space: pre;" direction="ltr" dominant-baseline="text-before-edge">5. Scale</text></g><g stroke-linecap="round"><g transform="translate(478.1726190476181 862.0000000000005) rotate(0 50.1931049463206 -0.6135715460404754)"><path d="M1.62 -1.27 C27.95 -0.73, 58.67 -0.61, 99.67 -0.73 M0.72 0.04 C39.28 -0.15, 78.75 -1.14, 97.81 -0.52" stroke="#000000" stroke-width="1" fill="none"></path></g><g transform="translate(478.1726190476181 862.0000000000005) rotate(0 50.1931049463206 -0.6135715460404754)"><path d="M71.15 8.23 C76.21 6.18, 85.7 3.27, 98.91 -1.25 M70.25 9.54 C81.1 5.98, 92.84 1.05, 97.05 -1.03" stroke="#000000" stroke-width="1" fill="none"></path></g><g transform="translate(478.1726190476181 862.0000000000005) rotate(0 50.1931049463206 -0.6135715460404754)"><path d="M71.33 -12.29 C76.43 -8.15, 85.87 -4.85, 98.91 -1.25 M70.42 -10.98 C81.16 -6.44, 92.83 -3.28, 97.05 -1.03" stroke="#000000" stroke-width="1" fill="none"></path></g></g><mask></mask><g stroke-linecap="round"><g transform="translate(845.3154761904755 860.571428571428) rotate(0 78.75450353098233 -49.50057485047728)"><path d="M0.9 1.5 C44.81 -27.75, 88.94 -54.37, 158.23 -98.96 M-0.72 -0.62 C61.38 -38.69, 122.44 -76.96, 157.4 -100.5" stroke="#000000" stroke-width="1" fill="none"></path></g><g transform="translate(845.3154761904755 860.571428571428) rotate(0 78.75450353098233 -49.50057485047728)"><path d="M140.34 -74.98 C145.27 -83.19, 150.35 -88.49, 158.5 -99.46 M138.71 -77.1 C146.99 -85.82, 154.22 -94.7, 157.67 -101.01" stroke="#000000" stroke-width="1" fill="none"></path></g><g transform="translate(845.3154761904755 860.571428571428) rotate(0 78.75450353098233 -49.50057485047728)"><path d="M129.1 -92.15 C137.21 -95.52, 145.43 -96.01, 158.5 -99.46 M127.47 -94.27 C140.09 -96.34, 151.67 -98.59, 157.67 -101.01" stroke="#000000" stroke-width="1" fill="none"></path></g></g><mask></mask><g stroke-linecap="round"><g transform="translate(846.7440476190466 866.2857142857142) rotate(0 78.32366745785941 45.20326545395483)"><path d="M0.86 1.78 C51.16 31.29, 100.16 57.83, 156.77 90.21 M-0.33 0.19 C47.05 24.39, 92.16 50.03, 156.97 89.02" stroke="#000000" stroke-width="1" fill="none"></path></g><g transform="translate(846.7440476190466 866.2857142857142) rotate(0 78.32366745785941 45.20326545395483)"><path d="M128.36 85.24 C138.35 87.07, 146.36 86.95, 156.6 90.66 M127.17 83.66 C136.54 84.6, 144.32 85.97, 156.8 89.48" stroke="#000000" stroke-width="1" fill="none"></path></g><g transform="translate(846.7440476190466 866.2857142857142) rotate(0 78.32366745785941 45.20326545395483)"><path d="M138.83 67.6 C145.32 75.01, 149.96 80.55, 156.6 90.66 M137.64 66.01 C144.09 72.19, 148.81 78.72, 156.8 89.48" stroke="#000000" stroke-width="1" fill="none"></path></g></g><mask></mask><g stroke-linecap="round"><g transform="translate(1288.1726190476181 757.7142857142849) rotate(0 87.26150569798699 47.85583324038544)"><path d="M-1.37 -1.19 C53.17 28.22, 104.17 59.65, 175.9 96.91 M0.85 -0.2 C36.44 22.47, 75.46 43.57, 174.13 96.58" stroke="#000000" stroke-width="1" fill="none"></path></g><g transform="translate(1288.1726190476181 757.7142857142849) rotate(0 87.26150569798699 47.85583324038544)"><path d="M143.07 91.05 C154.16 93.05, 160.84 96.04, 175.74 96.35 M145.29 92.04 C150.19 93.46, 157.84 94.43, 173.98 96.02" stroke="#000000" stroke-width="1" fill="none"></path></g><g transform="translate(1288.1726190476181 757.7142857142849) rotate(0 87.26150569798699 47.85583324038544)"><path d="M152.81 72.98 C160.74 80.59, 164.44 89.12, 175.74 96.35 M155.03 73.98 C157.68 79.24, 163.22 84.13, 173.98 96.02" stroke="#000000" stroke-width="1" fill="none"></path></g></g><mask></mask><g stroke-linecap="round"><g transform="translate(1289.6011904761897 954.8571428571418) rotate(0 89.30828341367999 -46.09196601979579)"><path d="M1.28 -1.11 C41.07 -22.79, 80.9 -44.21, 178.4 -91.9 M-0.61 0.69 C63.03 -32.57, 124.14 -65.26, 179.22 -92.88" stroke="#000000" stroke-width="1" fill="none"></path></g><g transform="translate(1289.6011904761897 954.8571428571418) rotate(0 89.30828341367999 -46.09196601979579)"><path d="M160.21 -72.15 C163.68 -76.77, 167.75 -82.24, 179.03 -91.81 M158.11 -70.15 C166.64 -78.67, 172.74 -86.8, 179.95 -92.9" stroke="#000000" stroke-width="1" fill="none"></path></g><g transform="translate(1289.6011904761897 954.8571428571418) rotate(0 89.30828341367999 -46.09196601979579)"><path d="M150.87 -90.43 C156.32 -90.99, 162.49 -92.33, 179.03 -91.81 M148.77 -88.42 C160.45 -90.62, 169.79 -92.4, 179.95 -92.9" stroke="#000000" stroke-width="1" fill="none"></path></g></g><mask></mask><g stroke-linecap="round"><g transform="translate(1733.8869047619044 859.1428571428573) rotate(0 52.0068944908146 0.7181519360415223)"><path d="M-0.45 -1 C24.38 -0.27, 51.65 -0.73, 102.33 2.43 M-0.54 -0.1 C42.25 0.17, 83.4 1.84, 104.55 1.42" stroke="#000000" stroke-width="1" fill="none"></path></g><g transform="translate(1733.8869047619044 859.1428571428573) rotate(0 52.0068944908146 0.7181519360415223)"><path d="M75.87 10.58 C82.5 9.12, 91.44 5.86, 102.6 2.43 M75.78 11.48 C88.18 6.97, 98.99 4.03, 104.82 1.41" stroke="#000000" stroke-width="1" fill="none"></path></g><g transform="translate(1733.8869047619044 859.1428571428573) rotate(0 52.0068944908146 0.7181519360415223)"><path d="M75.95 -9.94 C82.36 -6.46, 91.28 -4.77, 102.6 2.43 M75.86 -9.04 C88.31 -5.36, 99.08 -0.12, 104.82 1.41" stroke="#000000" stroke-width="1" fill="none"></path></g></g><mask></mask><g stroke-linecap="round"><g transform="translate(1152.4583333333328 804.8571428571418) rotate(0 -0.9413915083370625 50.3105744633026)"><path d="M-1.34 0.56 C-1.89 37.35, 0.29 75.72, -1.73 101.54 M-0.2 -0.92 C0.17 31.71, -1.79 64.3, -1.56 100.96" stroke="#000000" stroke-width="1" fill="none"></path></g><g transform="translate(1152.4583333333328 804.8571428571418) rotate(0 -0.9413915083370625 50.3105744633026)"><path d="M7.75 29.25 C3.06 17.4, 1.85 7.12, -1.65 0.68 M8.9 27.76 C6.4 19.61, 1.59 11.34, -1.48 0.1" stroke="#000000" stroke-width="1" fill="none"></path></g><g transform="translate(1152.4583333333328 804.8571428571418) rotate(0 -0.9413915083370625 50.3105744633026)"><path d="M-12.77 29.38 C-9.76 17.46, -3.26 7.13, -1.65 0.68 M-11.62 27.9 C-7.65 19.52, -5.98 11.21, -1.48 0.1" stroke="#000000" stroke-width="1" fill="none"></path></g><g transform="translate(1152.4583333333328 804.8571428571418) rotate(0 -0.9413915083370625 50.3105744633026)"><path d="M-12.94 73.25 C-9.61 82.56, -3.13 93.46, -1.87 101.08 M-11.79 71.77 C-7.82 81.22, -6.17 90.74, -1.7 100.5" stroke="#000000" stroke-width="1" fill="none"></path></g><g transform="translate(1152.4583333333328 804.8571428571418) rotate(0 -0.9413915083370625 50.3105744633026)"><path d="M7.58 73.42 C3.2 82.69, 1.98 93.52, -1.87 101.08 M8.73 71.94 C6.22 81.52, 1.4 90.99, -1.7 100.5" stroke="#000000" stroke-width="1" fill="none"></path></g></g><mask></mask><g stroke-linecap="round" transform="translate(10 10) rotate(0 1157.4999999999995 680.0000000000002)"><path d="M0.47 0.7 C579.27 -5.96, 1157.82 -6.18, 2314.92 0.5 M-0.19 -0.24 C697.51 6.18, 1395.7 6.29, 2314.77 -0.39 M2315.59 0.28 C2310.58 299.65, 2310.42 600.54, 2315.33 1359.9 M2314.77 -0.08 C2309.64 421.49, 2309.54 842.87, 2314.79 1360.13 M2314.5 1359.64 C1534.96 1352.35, 755.65 1352.18, 0.48 1360.33 M2314.91 1359.78 C1421.51 1360.13, 528.45 1360.83, -0.29 1360.01 M-0.7 1360.22 C0.67 867.2, -0.01 372.52, -0.4 0.31 M-0.07 1360.22 C-2.26 847.8, -2.11 335.4, 0.28 0.19" stroke="transparent" stroke-width="1" fill="none"></path></g></svg>