<svg version="1.1" xmlns="http://www.w3.org/2000/svg" viewBox="0 0 2414.2857142857138 1245.7142857142853" width="7242.857142857141" height="3737.142857142856">
  <!-- svg-source:excalidraw -->
  
  <defs>
    <style class="style-fonts">
      @font-face {
        font-family: "Virgil";
        src: url("https://excalidraw.com/Virgil.woff2");
      }
      @font-face {
        font-family: "Cascadia";
        src: url("https://excalidraw.com/Cascadia.woff2");
      }
    </style>
  </defs>
  <rect x="0" y="0" width="2414.2857142857138" height="1245.7142857142853" fill="#ffffff"></rect><g stroke-linecap="round" transform="translate(1130.2103174603167 208.09126984126965) rotate(0 139 48)"><path d="M-0.9 -1.28 C104.64 -1.51, 208.1 -0.66, 278.67 -0.98 M-0.63 0.32 C106.29 0.14, 212.69 0.99, 278.15 0.18 M277.06 -0.01 C279.68 24.69, 276.53 45.86, 279.42 97.26 M278.03 -0.64 C277.67 34.85, 277.47 71.97, 278.26 96.62 M279.45 96.15 C177.23 94.07, 74.3 94.51, 0.8 94.84 M277.9 96.52 C210.76 94.48, 143.81 95.9, 0.67 96.4 M1.02 94.75 C-2.13 73.12, -0.51 53.21, 1.05 0.04 M-0.33 95.02 C-1.02 72.67, -0.9 48.2, 0.62 0.77" stroke="#000000" stroke-width="1" fill="none"></path></g><g transform="translate(1184.7199686443987 238.59126984126965) rotate(0 84.49034881591797 17.5)"><text x="84.49034881591797" y="0" font-family="Virgil, Segoe UI Emoji" font-size="28px" fill="#000000" text-anchor="middle" style="white-space: pre;" direction="ltr" dominant-baseline="text-before-edge">Data Types</text></g><g stroke-linecap="round" transform="translate(706.2103174603167 428.09126984126965) rotate(0 139 48)"><path d="M0.74 1.64 L278.06 -0.07 L279.63 95.88 L0.75 94.2" stroke="none" stroke-width="0" fill="#228be6"></path><path d="M-0.9 -1.28 C104.64 -1.51, 208.1 -0.66, 278.67 -0.98 M-0.63 0.32 C106.29 0.14, 212.69 0.99, 278.15 0.18 M277.06 -0.01 C279.68 24.69, 276.53 45.86, 279.42 97.26 M278.03 -0.64 C277.67 34.85, 277.47 71.97, 278.26 96.62 M279.45 96.15 C177.23 94.07, 74.3 94.51, 0.8 94.84 M277.9 96.52 C210.76 94.48, 143.81 95.9, 0.67 96.4 M1.02 94.75 C-2.13 73.12, -0.51 53.21, 1.05 0.04 M-0.33 95.02 C-1.02 72.67, -0.9 48.2, 0.62 0.77" stroke="#000000" stroke-width="1" fill="none"></path></g><g transform="translate(765.2419947064104 458.59126984126965) rotate(0 79.96832275390625 17.5)"><text x="79.96832275390625" y="0" font-family="Virgil, Segoe UI Emoji" font-size="28px" fill="#000000" text-anchor="middle" style="white-space: pre;" direction="ltr" dominant-baseline="text-before-edge">Quantiative</text></g><g stroke-linecap="round" transform="translate(1534.4603022015276 433.59126984126965) rotate(0 139 48)"><path d="M0.74 1.64 L278.06 -0.07 L279.63 95.88 L0.75 94.2" stroke="none" stroke-width="0" fill="#e64980"></path><path d="M-0.9 -1.28 C104.64 -1.51, 208.1 -0.66, 278.67 -0.98 M-0.63 0.32 C106.29 0.14, 212.69 0.99, 278.15 0.18 M277.06 -0.01 C279.68 24.69, 276.53 45.86, 279.42 97.26 M278.03 -0.64 C277.67 34.85, 277.47 71.97, 278.26 96.62 M279.45 96.15 C177.23 94.07, 74.3 94.51, 0.8 94.84 M277.9 96.52 C210.76 94.48, 143.81 95.9, 0.67 96.4 M1.02 94.75 C-2.13 73.12, -0.51 53.21, 1.05 0.04 M-0.33 95.02 C-1.02 72.67, -0.9 48.2, 0.62 0.77" stroke="#000000" stroke-width="1" fill="none"></path></g><g transform="translate(1596.347989884633 464.09126984126965) rotate(0 77.11231231689453 17.5)"><text x="77.11231231689453" y="0" font-family="Virgil, Segoe UI Emoji" font-size="28px" fill="#000000" text-anchor="middle" style="white-space: pre;" direction="ltr" dominant-baseline="text-before-edge">Qualitative</text></g><g stroke-linecap="round" transform="translate(415.7103022015276 757.8412698412696) rotate(0 139.00000000000003 48)"><path d="M-0.9 -1.28 C104.64 -1.51, 208.1 -0.66, 278.67 -0.98 M-0.63 0.32 C106.29 0.14, 212.69 0.99, 278.15 0.18 M277.06 -0.01 C279.68 24.69, 276.53 45.86, 279.42 97.26 M278.03 -0.64 C277.67 34.85, 277.47 71.97, 278.26 96.62 M279.45 96.15 C177.23 94.07, 74.3 94.51, 0.8 94.84 M277.9 96.52 C210.76 94.48, 143.81 95.9, 0.67 96.4 M1.02 94.75 C-2.13 73.12, -0.51 53.21, 1.05 0.04 M-0.33 95.02 C-1.02 72.67, -0.9 48.2, 0.62 0.77" stroke="#364fc7" stroke-width="1" fill="none"></path></g><g transform="translate(496.84805854918386 788.3412698412696) rotate(0 57.86224365234375 17.5)"><text x="57.86224365234375" y="0" font-family="Virgil, Segoe UI Emoji" font-size="28px" fill="#364fc7" text-anchor="middle" style="white-space: pre;" direction="ltr" dominant-baseline="text-before-edge">Discrete</text></g><g stroke-linecap="round" transform="translate(892.7103022015276 758.3412698412696) rotate(0 139 48)"><path d="M-0.9 -1.28 C104.64 -1.51, 208.1 -0.66, 278.67 -0.98 M-0.63 0.32 C106.29 0.14, 212.69 0.99, 278.15 0.18 M277.06 -0.01 C279.68 24.69, 276.53 45.86, 279.42 97.26 M278.03 -0.64 C277.67 34.85, 277.47 71.97, 278.26 96.62 M279.45 96.15 C177.23 94.07, 74.3 94.51, 0.8 94.84 M277.9 96.52 C210.76 94.48, 143.81 95.9, 0.67 96.4 M1.02 94.75 C-2.13 73.12, -0.51 53.21, 1.05 0.04 M-0.33 95.02 C-1.02 72.67, -0.9 48.2, 0.62 0.77" stroke="#364fc7" stroke-width="1" fill="none"></path></g><g transform="translate(959.6240061199846 788.8412698412696) rotate(0 72.08629608154297 17.5)"><text x="72.08629608154297" y="0" font-family="Virgil, Segoe UI Emoji" font-size="28px" fill="#364fc7" text-anchor="middle" style="white-space: pre;" direction="ltr" dominant-baseline="text-before-edge">Continuous</text></g><g stroke-linecap="round" transform="translate(1311.4603174603167 761.5912698412696) rotate(0 139 47)"><path d="M-0.9 -1.28 C104.64 -1.51, 208.1 -0.66, 278.67 -0.98 M-0.63 0.32 C106.29 0.14, 212.69 0.99, 278.15 0.18 M277.06 -0.01 C279.67 24.21, 276.52 44.88, 279.42 95.26 M278.03 -0.64 C277.68 34.11, 277.49 70.48, 278.26 94.62 M279.45 94.15 C177.23 92.07, 74.3 92.51, 0.8 92.84 M277.9 94.52 C210.76 92.48, 143.81 93.9, 0.67 94.4 M1.02 92.75 C-2.11 71.58, -0.49 52.12, 1.05 0.04 M-0.33 93.02 C-1.01 71.17, -0.89 47.2, 0.62 0.77" stroke="#a61e4d" stroke-width="1" fill="none"></path></g><g transform="translate(1402.20212349059 791.0912698412696) rotate(0 48.25819396972656 17.5)"><text x="48.25819396972656" y="0" font-family="Virgil, Segoe UI Emoji" font-size="28px" fill="#a61e4d" text-anchor="middle" style="white-space: pre;" direction="ltr" dominant-baseline="text-before-edge">Nominal</text></g><g stroke-linecap="round" transform="translate(1710.4603174603167 758.0912698412696) rotate(0 139 47.5)"><path d="M-0.9 -1.28 C104.64 -1.51, 208.1 -0.66, 278.67 -0.98 M-0.63 0.32 C106.29 0.14, 212.69 0.99, 278.15 0.18 M277.06 -0.01 C279.68 24.45, 276.52 45.37, 279.42 96.26 M278.03 -0.64 C277.68 34.48, 277.48 71.22, 278.26 95.62 M279.45 95.15 C177.23 93.07, 74.3 93.51, 0.8 93.84 M277.9 95.52 C210.76 93.48, 143.81 94.9, 0.67 95.4 M1.02 93.75 C-2.12 72.35, -0.5 52.66, 1.05 0.04 M-0.33 94.02 C-1.01 71.92, -0.89 47.7, 0.62 0.77" stroke="#a61e4d" stroke-width="1" fill="none"></path></g><g transform="translate(1802.6861322796526 788.0912698412696) rotate(0 46.77418518066406 17.5)"><text x="46.77418518066406" y="0" font-family="Virgil, Segoe UI Emoji" font-size="28px" fill="#a61e4d" text-anchor="middle" style="white-space: pre;" direction="ltr" dominant-baseline="text-before-edge">Ordinal</text></g><g stroke-linecap="round"><g transform="translate(1258.2103174603167 305.09126984126965) rotate(0 -134.09526104859657 86.04153169649098)"><path d="M-0.62 -1.08 C-82.92 53.41, -165.97 108.23, -267.72 173.17 M-0.22 0.47 C-103.57 68.16, -208.05 136.01, -267.97 172.94" stroke="#000000" stroke-width="1" fill="none"></path></g><g transform="translate(1258.2103174603167 305.09126984126965) rotate(0 -134.09526104859657 86.04153169649098)"><path d="M-250.46 147.7 C-255.92 156.26, -262.38 165.74, -267.92 173.18 M-249.9 149.91 C-255.75 157.62, -262.89 167.34, -268.27 172.86" stroke="#000000" stroke-width="1" fill="none"></path></g><g transform="translate(1258.2103174603167 305.09126984126965) rotate(0 -134.09526104859657 86.04153169649098)"><path d="M-239.53 165.06 C-248.36 168.3, -258.19 172.42, -267.92 173.18 M-238.96 167.28 C-249.13 168.29, -260.53 171.22, -268.27 172.86" stroke="#000000" stroke-width="1" fill="none"></path></g></g><mask></mask><g stroke-linecap="round"><g transform="translate(1276.1586234822917 305.09126984126965) rotate(0 126.28617534929856 89.4784188472982)"><path d="M0.1 -1.29 C53.91 39.69, 105.62 75.63, 250.7 179.93 M0.71 -0.33 C99.61 70.82, 199.3 142.44, 252.47 180.25" stroke="#000000" stroke-width="1" fill="none"></path></g><g transform="translate(1276.1586234822917 305.09126984126965) rotate(0 126.28617534929856 89.4784188472982)"><path d="M223.71 170.42 C230.46 175.77, 234.07 174.14, 250.94 179.64 M224.55 171.76 C234.96 175.36, 246.65 179.03, 253.4 180.09" stroke="#000000" stroke-width="1" fill="none"></path></g><g transform="translate(1276.1586234822917 305.09126984126965) rotate(0 126.28617534929856 89.4784188472982)"><path d="M235.63 153.72 C239.83 162.61, 240.9 164.53, 250.94 179.64 M236.47 155.05 C242.19 165.29, 249.16 175.56, 253.4 180.09" stroke="#000000" stroke-width="1" fill="none"></path></g></g><mask></mask><g transform="translate(704.2103174603167 549.0912698412696) rotate(0 147.8406219482422 17.5)"><text x="0" y="0" font-family="Virgil, Segoe UI Emoji" font-size="28px" fill="#000000" text-anchor="start" style="white-space: pre;" direction="ltr" dominant-baseline="text-before-edge">Numerical Information</text></g><g transform="translate(706.2103174603167 595.0912698412696) rotate(0 124.34852600097656 17.5)"><text x="0" y="0" font-family="Virgil, Segoe UI Emoji" font-size="28px" fill="#495057" text-anchor="start" style="white-space: pre;" direction="ltr" dominant-baseline="text-before-edge">Time, weight, GDP</text></g><g stroke-linecap="round"><g transform="translate(799.0027515711661 639.0912698412696) rotate(0 -112.26097108902059 56.66114598654622)"><path d="M-0.09 -1.36 C-53.58 27.69, -105.65 52.3, -225.31 113.89 M0.79 -0.8 C-67.57 35.7, -135.01 68.93, -224.72 114.69" stroke="#364fc7" stroke-width="1" fill="none"></path></g><g transform="translate(799.0027515711661 639.0912698412696) rotate(0 -112.26097108902059 56.66114598654622)"><path d="M-204.33 91.11 C-210.35 99.14, -214.15 101.47, -226.36 114.55 M-203.26 91.8 C-210.82 99.96, -216.91 105.17, -225.65 115.53" stroke="#364fc7" stroke-width="1" fill="none"></path></g><g transform="translate(799.0027515711661 639.0912698412696) rotate(0 -112.26097108902059 56.66114598654622)"><path d="M-195.05 109.41 C-203.35 113.1, -209.34 111.11, -226.36 114.55 M-193.98 110.1 C-204.41 112.79, -213.29 112.49, -225.65 115.53" stroke="#364fc7" stroke-width="1" fill="none"></path></g></g><mask></mask><g stroke-linecap="round"><g transform="translate(857.7252924265612 639.0912698412696) rotate(0 75.06296505953031 55.98862863890827)"><path d="M0.32 1.35 C49.07 36.64, 98.02 70.85, 149.4 111.19 M-0.06 -0.66 C56.31 44.34, 114.66 86.52, 150.19 112.64" stroke="#364fc7" stroke-width="1" fill="none"></path></g><g transform="translate(857.7252924265612 639.0912698412696) rotate(0 75.06296505953031 55.98862863890827)"><path d="M121.71 105.59 C131.6 107.55, 141.41 107.83, 150.07 110.83 M121.33 103.58 C131.82 108.37, 143.5 110.12, 150.86 112.27" stroke="#364fc7" stroke-width="1" fill="none"></path></g><g transform="translate(857.7252924265612 639.0912698412696) rotate(0 75.06296505953031 55.98862863890827)"><path d="M133.85 89.04 C139.76 96.42, 145.62 102.07, 150.07 110.83 M133.46 87.03 C139.14 98.25, 146.13 106.39, 150.86 112.27" stroke="#364fc7" stroke-width="1" fill="none"></path></g></g><mask></mask><g transform="translate(1537.1196955120745 562.8412698412696) rotate(0 178.1507568359375 17.5)"><text x="0" y="0" font-family="Virgil, Segoe UI Emoji" font-size="28px" fill="#000000" text-anchor="start" style="white-space: pre;" direction="ltr" dominant-baseline="text-before-edge">Non Numerical Information</text></g><g transform="translate(1539.1196955120745 608.8412698412696) rotate(0 88.83037567138672 17.5)"><text x="0" y="0" font-family="Virgil, Segoe UI Emoji" font-size="28px" fill="#495057" text-anchor="start" style="white-space: pre;" direction="ltr" dominant-baseline="text-before-edge">Text, images</text></g><g stroke-linecap="round"><g transform="translate(1616.0920409020252 652.1641865079364) rotate(0 -79.59587082901828 53.436867949242355)"><path d="M1.01 0.41 C-39.19 25.35, -77.37 49.78, -159.67 106.17 M0.43 -0.28 C-37.72 22.95, -73.69 47.63, -160.2 107.15" stroke="#a61e4d" stroke-width="1" fill="none"></path></g><g transform="translate(1616.0920409020252 652.1641865079364) rotate(0 -79.59587082901828 53.436867949242355)"><path d="M-141.76 83.14 C-147.23 87.97, -151.05 92.59, -158.79 106.09 M-142.34 82.46 C-147.31 87.69, -150.74 93.61, -159.32 107.08" stroke="#a61e4d" stroke-width="1" fill="none"></path></g><g transform="translate(1616.0920409020252 652.1641865079364) rotate(0 -79.59587082901828 53.436867949242355)"><path d="M-130.14 100.06 C-138.32 100.87, -144.92 101.44, -158.79 106.09 M-130.72 99.38 C-138.19 100.72, -144.25 102.8, -159.32 107.08" stroke="#a61e4d" stroke-width="1" fill="none"></path></g></g><mask></mask><g stroke-linecap="round"><g transform="translate(1671.6230418843747 652.2527281746029) rotate(0 81.46969215843421 52.06202074730152)"><path d="M1.1 1.97 C41.85 28.55, 81.91 51.72, 162.74 103.21 M0.2 0.91 C46.7 28.25, 94.95 59.14, 162.19 101.36" stroke="#a61e4d" stroke-width="1" fill="none"></path></g><g transform="translate(1671.6230418843747 652.2527281746029) rotate(0 81.46969215843421 52.06202074730152)"><path d="M133.97 97 C140.77 98.37, 146.87 96.92, 163.39 102.45 M133.07 95.94 C141.57 95.91, 150.99 98.66, 162.84 100.6" stroke="#a61e4d" stroke-width="1" fill="none"></path></g><g transform="translate(1671.6230418843747 652.2527281746029) rotate(0 81.46969215843421 52.06202074730152)"><path d="M144.9 79.64 C148.89 85.41, 152.18 88.43, 163.39 102.45 M144 78.58 C149.14 83.71, 155.35 91.56, 162.84 100.6" stroke="#a61e4d" stroke-width="1" fill="none"></path></g></g><mask></mask><g transform="translate(414.3696955120745 882.5912698412696) rotate(0 184.4647674560547 70)"><text x="0" y="0" font-family="Virgil, Segoe UI Emoji" font-size="28px" fill="#000000" text-anchor="start" style="white-space: pre;" direction="ltr" dominant-baseline="text-before-edge">Integers (whole numbers)</text><text x="0" y="35" font-family="Virgil, Segoe UI Emoji" font-size="28px" fill="#000000" text-anchor="start" style="white-space: pre;" direction="ltr" dominant-baseline="text-before-edge">that cannot be subdivided.</text><text x="0" y="70" font-family="Virgil, Segoe UI Emoji" font-size="28px" fill="#000000" text-anchor="start" style="white-space: pre;" direction="ltr" dominant-baseline="text-before-edge">Can be counted but not</text><text x="0" y="105" font-family="Virgil, Segoe UI Emoji" font-size="28px" fill="#000000" text-anchor="start" style="white-space: pre;" direction="ltr" dominant-baseline="text-before-edge">measured.</text></g><g transform="translate(417.3696955120745 1038.5912698412696) rotate(0 150.36065673828125 35)"><text x="0" y="0" font-family="Virgil, Segoe UI Emoji" font-size="28px" fill="#495057" text-anchor="start" style="white-space: pre;" direction="ltr" dominant-baseline="text-before-edge">Days of months,</text><text x="0" y="35" font-family="Virgil, Segoe UI Emoji" font-size="28px" fill="#495057" text-anchor="start" style="white-space: pre;" direction="ltr" dominant-baseline="text-before-edge">Number of employees. </text></g><g transform="translate(888.745550004262 879.0912698412696) rotate(0 164.220703125 70)"><text x="0" y="0" font-family="Virgil, Segoe UI Emoji" font-size="28px" fill="#000000" text-anchor="start" style="white-space: pre;" direction="ltr" dominant-baseline="text-before-edge">Numbers that remain</text><text x="0" y="35" font-family="Virgil, Segoe UI Emoji" font-size="28px" fill="#000000" text-anchor="start" style="white-space: pre;" direction="ltr" dominant-baseline="text-before-edge">meaningful when divide</text><text x="0" y="70" font-family="Virgil, Segoe UI Emoji" font-size="28px" fill="#000000" text-anchor="start" style="white-space: pre;" direction="ltr" dominant-baseline="text-before-edge">into smaller units.</text><text x="0" y="105" font-family="Virgil, Segoe UI Emoji" font-size="28px" fill="#000000" text-anchor="start" style="white-space: pre;" direction="ltr" dominant-baseline="text-before-edge">Can often be measured.</text></g><g transform="translate(889.745550004262 1035.0912698412696) rotate(0 159.64266967773438 52.5)"><text x="0" y="0" font-family="Virgil, Segoe UI Emoji" font-size="28px" fill="#495057" text-anchor="start" style="white-space: pre;" direction="ltr" dominant-baseline="text-before-edge">Amount of snow fallen,</text><text x="0" y="35" font-family="Virgil, Segoe UI Emoji" font-size="28px" fill="#495057" text-anchor="start" style="white-space: pre;" direction="ltr" dominant-baseline="text-before-edge">Heights of each child in</text><text x="0" y="70" font-family="Virgil, Segoe UI Emoji" font-size="28px" fill="#495057" text-anchor="start" style="white-space: pre;" direction="ltr" dominant-baseline="text-before-edge">the clasee.</text></g><g transform="translate(1309.7396143353167 878.8412698412696) rotate(0 138.93658447265625 35)"><text x="0" y="0" font-family="Virgil, Segoe UI Emoji" font-size="28px" fill="#000000" text-anchor="start" style="white-space: pre;" direction="ltr" dominant-baseline="text-before-edge">Values don't have a</text><text x="0" y="35" font-family="Virgil, Segoe UI Emoji" font-size="28px" fill="#000000" text-anchor="start" style="white-space: pre;" direction="ltr" dominant-baseline="text-before-edge">specific order.</text></g><g transform="translate(1313.2396143353167 974.8412698412696) rotate(0 108.1644515991211 35)"><text x="0" y="0" font-family="Virgil, Segoe UI Emoji" font-size="28px" fill="#495057" text-anchor="start" style="white-space: pre;" direction="ltr" dominant-baseline="text-before-edge">Gender identity,</text><text x="0" y="35" font-family="Virgil, Segoe UI Emoji" font-size="28px" fill="#495057" text-anchor="start" style="white-space: pre;" direction="ltr" dominant-baseline="text-before-edge">City</text></g><g transform="translate(1713.0237329876604 890.3412698412696) rotate(0 165.50869750976562 35)"><text x="0" y="0" font-family="Virgil, Segoe UI Emoji" font-size="28px" fill="#000000" text-anchor="start" style="white-space: pre;" direction="ltr" dominant-baseline="text-before-edge">Values can be organized</text><text x="0" y="35" font-family="Virgil, Segoe UI Emoji" font-size="28px" fill="#000000" text-anchor="start" style="white-space: pre;" direction="ltr" dominant-baseline="text-before-edge">in order of magnitude.</text></g><g transform="translate(1715.0458658611956 975.5912698412696) rotate(0 164.9066925048828 70)"><text x="0" y="0" font-family="Virgil, Segoe UI Emoji" font-size="28px" fill="#495057" text-anchor="start" style="white-space: pre;" direction="ltr" dominant-baseline="text-before-edge">T-shirt sizes,</text><text x="0" y="35" font-family="Virgil, Segoe UI Emoji" font-size="28px" fill="#495057" text-anchor="start" style="white-space: pre;" direction="ltr" dominant-baseline="text-before-edge">Gold, Silver, and Bronze</text><text x="0" y="70" font-family="Virgil, Segoe UI Emoji" font-size="28px" fill="#495057" text-anchor="start" style="white-space: pre;" direction="ltr" dominant-baseline="text-before-edge">medalist in an Olympic</text><text x="0" y="105" font-family="Virgil, Segoe UI Emoji" font-size="28px" fill="#495057" text-anchor="start" style="white-space: pre;" direction="ltr" dominant-baseline="text-before-edge">competition</text></g><g stroke-linecap="round" transform="translate(10 10) rotate(0 1197.1428571428569 612.8571428571427)"><path d="M-0.79 -0.79 C687.56 -1.26, 1376.62 -1.32, 2393.49 -0.76 M0.03 0.24 C687.25 -2.88, 1374.18 -3.39, 2394.67 0.17 M2394.26 0.11 C2398.17 459.95, 2398.72 921.63, 2393.77 1225.98 M2394.58 0.12 C2395 288.93, 2395.54 577.69, 2394.05 1226.09 M2393.7 1225.04 C1621.37 1231.67, 849.69 1230.98, -0.06 1224.98 M2394.51 1225.69 C1672.93 1224.98, 952.13 1224.69, -0.26 1225.98 M0.07 1225.55 C3.17 802.96, 2.73 380.11, 0.75 0.54 M-0.16 1226.11 C2.34 883.99, 2.71 541.33, -0.34 0.21" stroke="transparent" stroke-width="1" fill="none"></path></g></svg>