<svg version="1.1" xmlns="http://www.w3.org/2000/svg" viewBox="0 0 3857.066180892376 1949.687352599945" width="11571.198542677128" height="5849.062057799834">
  <!-- svg-source:excalidraw -->
  
  <defs>
    <style class="style-fonts">
      @font-face {
        font-family: "Virgil";
        src: url("https://excalidraw.com/Virgil.woff2");
      }
      @font-face {
        font-family: "Cascadia";
        src: url("https://excalidraw.com/Cascadia.woff2");
      }
    </style>
  </defs>
  <rect x="0" y="0" width="3857.066180892376" height="1949.687352599945" fill="#ffffff"></rect><g stroke-linecap="round" transform="translate(1676.618621493386 176.55044697696457) rotate(0 237.5000000000001 107.5)"><path d="M0.74 0.71 C101.02 -0.61, 202.06 -1.28, 474.53 -0.36 M-0.24 -0.1 C132.28 -0.41, 264.32 -0.9, 475.42 0.01 M475.46 -0.19 C474.47 48.06, 474.59 96.32, 476.36 215.65 M475.03 0.65 C475.73 59.74, 475.14 119.28, 475.28 215.26 M475.37 215.29 C374.19 212.59, 272.09 213.03, -0.16 214.32 M474.82 215.05 C294.87 214.98, 115.6 214.7, -0.24 215.44 M-1.68 215.54 C2.11 144.65, 2.27 77.47, 1.2 -0.52 M-0.45 215.48 C0.11 170.22, -0.02 126.15, -0.23 -0.45" stroke="#000000" stroke-width="1" fill="none"></path></g><g transform="translate(1716.618621493386 212.55044697696462) rotate(0 105.1560287475586 22.5)"><text x="0" y="0" font-family="Virgil, Segoe UI Emoji" font-size="36px" fill="#000000" text-anchor="start" style="white-space: pre;" direction="ltr" dominant-baseline="text-before-edge">1. Find data</text></g><g transform="translate(1718.618621493386 274.5504469769646) rotate(0 190.7227783203125 35)"><text x="0" y="0" font-family="Virgil, Segoe UI Emoji" font-size="28px" fill="#000000" text-anchor="start" style="white-space: pre;" direction="ltr" dominant-baseline="text-before-edge">Find a pre-existing dataset</text><text x="0" y="35" font-family="Virgil, Segoe UI Emoji" font-size="28px" fill="#000000" text-anchor="start" style="white-space: pre;" direction="ltr" dominant-baseline="text-before-edge">or manually gather data.</text></g><g stroke-linecap="round" transform="translate(1676.4751393970532 521.4246828002737) rotate(0 237.5000000000001 120.89378293337654)"><path d="M0.74 0.71 C101.02 -0.61, 202.06 -1.28, 474.53 -0.36 M-0.24 -0.1 C132.28 -0.41, 264.32 -0.9, 475.42 0.01 M475.43 -0.18 C474.35 54.21, 474.45 108.61, 476.29 242.41 M475.02 0.62 C475.8 67.18, 475.24 134.17, 475.27 242.04 M475.37 242.08 C374.19 239.38, 272.09 239.82, -0.16 241.11 M474.82 241.84 C294.87 241.77, 115.6 241.49, -0.24 242.22 M-1.6 242.3 C2.18 162.89, 2.33 86.99, 1.14 -0.49 M-0.43 242.24 C0.11 191.48, -0.02 141.84, -0.22 -0.43" stroke="#000000" stroke-width="1" fill="none"></path></g><g transform="translate(1716.4751393970532 557.4246828002738) rotate(0 161.08204650878906 22.5)"><text x="0" y="0" font-family="Virgil, Segoe UI Emoji" font-size="36px" fill="#000000" text-anchor="start" style="white-space: pre;" direction="ltr" dominant-baseline="text-before-edge">2. Load the data</text></g><g transform="translate(1718.4751393970532 619.4246828002737) rotate(0 190.63880920410156 52.5)"><text x="0" y="0" font-family="Virgil, Segoe UI Emoji" font-size="28px" fill="#000000" text-anchor="start" style="white-space: pre;" direction="ltr" dominant-baseline="text-before-edge">Use one of the D3 fetch</text><text x="0" y="35" font-family="Virgil, Segoe UI Emoji" font-size="28px" fill="#000000" text-anchor="start" style="white-space: pre;" direction="ltr" dominant-baseline="text-before-edge">functions to load the data</text><text x="0" y="70" font-family="Virgil, Segoe UI Emoji" font-size="28px" fill="#000000" text-anchor="start" style="white-space: pre;" direction="ltr" dominant-baseline="text-before-edge">into your project.</text></g><g stroke-linecap="round" transform="translate(1149.9830738612243 852.1703104776086) rotate(0 257.9977984540658 120.89378293337654)"><path d="M0.67 0.64 C109.76 -0.67, 219.52 -1.27, 515.57 -0.33 M-0.22 -0.09 C143.71 -0.43, 287.2 -0.87, 516.38 0.01 M516.43 -0.18 C515.34 54.21, 515.45 108.61, 517.28 242.41 M516.02 0.62 C516.79 67.18, 516.23 134.17, 516.26 242.04 M516.33 242.05 C406.38 239.47, 295.59 239.86, -0.14 241.17 M515.83 241.84 C320.37 241.76, 125.53 241.51, -0.22 242.18 M-1.6 242.3 C2.18 162.89, 2.33 86.99, 1.14 -0.49 M-0.43 242.24 C0.11 191.48, -0.02 141.84, -0.22 -0.43" stroke="#000000" stroke-width="1" fill="none"></path></g><g transform="translate(1189.9830738612243 888.1703104776086) rotate(0 191.14205932617188 22.5)"><text x="0" y="0" font-family="Virgil, Segoe UI Emoji" font-size="36px" fill="#000000" text-anchor="start" style="white-space: pre;" direction="ltr" dominant-baseline="text-before-edge">3.a Format the data</text></g><g transform="translate(1188.9463629791403 950.1703104776084) rotate(0 220.97694396972656 52.5)"><text x="0" y="0" font-family="Virgil, Segoe UI Emoji" font-size="28px" fill="#000000" text-anchor="start" style="white-space: pre;" direction="ltr" dominant-baseline="text-before-edge">Make sure the data is ready</text><text x="0" y="35" font-family="Virgil, Segoe UI Emoji" font-size="28px" fill="#000000" text-anchor="start" style="white-space: pre;" direction="ltr" dominant-baseline="text-before-edge">to use. e.g. format the numbers</text><text x="0" y="70" font-family="Virgil, Segoe UI Emoji" font-size="28px" fill="#000000" text-anchor="start" style="white-space: pre;" direction="ltr" dominant-baseline="text-before-edge">and dates.</text></g><g stroke-linecap="round" transform="translate(1401.5858563664017 1586.6344311074374) rotate(0 523.031527715813 120.89378293337654)"><path d="M0.67 0.64 C222.59 -2.15, 445.19 -2.75, 1045.63 -0.33 M-0.22 -0.09 C291.39 -1.1, 582.55 -1.54, 1046.45 0.01 M1046.5 -0.18 C1045.41 54.21, 1045.52 108.61, 1047.35 242.41 M1046.09 0.62 C1046.86 67.18, 1046.3 134.17, 1046.33 242.04 M1046.4 242.05 C823.3 237.71, 599.37 238.1, -0.14 241.17 M1045.9 241.84 C649.76 241.69, 254.25 241.44, -0.22 242.18 M-1.6 242.3 C2.18 162.89, 2.33 86.99, 1.14 -0.49 M-0.43 242.24 C0.11 191.48, -0.02 141.84, -0.22 -0.43" stroke="#000000" stroke-width="1" fill="none"></path></g><g transform="translate(1455.907186910142 1622.6344311074374) rotate(0 455.7421569824219 22.5)"><text x="0" y="0" font-family="Virgil, Segoe UI Emoji" font-size="36px" fill="#000000" text-anchor="start" style="white-space: pre;" direction="ltr" dominant-baseline="text-before-edge">5. Translate data value to the screen attributes</text></g><g transform="translate(1457.907186910142 1684.6344311074374) rotate(0 472.1939697265625 35)"><text x="0" y="0" font-family="Virgil, Segoe UI Emoji" font-size="28px" fill="#000000" text-anchor="start" style="white-space: pre;" direction="ltr" dominant-baseline="text-before-edge">Use scales to calculate the visual variables (length, color, position,</text><text x="0" y="35" font-family="Virgil, Segoe UI Emoji" font-size="28px" fill="#000000" text-anchor="start" style="white-space: pre;" direction="ltr" dominant-baseline="text-before-edge">etc) used to represent the data</text></g><g stroke-linecap="round" transform="translate(2158.9072311552763 863.204484142443) rotate(0 340.74816999084885 120.89378293337654)"><path d="M0.67 0.64 C144.99 -1.13, 289.98 -1.73, 681.07 -0.33 M-0.22 -0.09 C189.82 -0.64, 379.41 -1.08, 681.88 0.01 M681.93 -0.18 C680.84 54.21, 680.95 108.61, 682.78 242.41 M681.52 0.62 C682.3 67.18, 681.73 134.17, 681.76 242.04 M681.83 242.05 C536.55 238.92, 390.44 239.31, -0.14 241.17 M681.34 241.84 C423.22 241.74, 165.72 241.49, -0.22 242.18 M-1.6 242.3 C2.18 162.89, 2.33 86.99, 1.14 -0.49 M-0.43 242.24 C0.11 191.48, -0.02 141.84, -0.22 -0.43" stroke="#000000" stroke-width="1" fill="none"></path></g><g transform="translate(2198.9072311552763 899.204484142443) rotate(0 290.52008056640625 22.5)"><text x="0" y="0" font-family="Virgil, Segoe UI Emoji" font-size="36px" fill="#000000" text-anchor="start" style="white-space: pre;" direction="ltr" dominant-baseline="text-before-edge">3.b Measure the data (optional)</text></g><g transform="translate(2197.870520273192 968.367490918846) rotate(0 299.4332275390625 52.5)"><text x="0" y="0" font-family="Virgil, Segoe UI Emoji" font-size="28px" fill="#000000" text-anchor="start" style="white-space: pre;" direction="ltr" dominant-baseline="text-before-edge">Identify the main statiscal characteristics</text><text x="0" y="35" font-family="Virgil, Segoe UI Emoji" font-size="28px" fill="#000000" text-anchor="start" style="white-space: pre;" direction="ltr" dominant-baseline="text-before-edge">of your dataset like the max value and</text><text x="0" y="70" font-family="Virgil, Segoe UI Emoji" font-size="28px" fill="#000000" text-anchor="start" style="white-space: pre;" direction="ltr" dominant-baseline="text-before-edge">the min.</text></g><g stroke-linecap="round" transform="translate(1555.0707985577255 1305.6622609691078) rotate(0 363.7067254167072 59.133044963498605)"><path d="M0.67 0.64 C154.76 -1.26, 309.53 -1.86, 726.98 -0.33 M-0.22 -0.09 C202.61 -0.7, 405 -1.14, 727.8 0.01 M727.94 -0.22 C727.49 25.87, 727.62 51.98, 728.96 119.01 M727.44 0.74 C727.78 32.88, 727.11 65.53, 727.73 118.57 M727.75 118.53 C572.67 115.24, 416.75 115.64, -0.14 117.65 M727.25 118.31 C451.75 118.21, 176.87 117.96, -0.22 118.66 M-1.92 118.88 C1.63 78.86, 1.82 43.07, 1.37 -0.59 M-0.51 118.81 C0.12 93.47, -0.03 69.49, -0.27 -0.52" stroke="#000000" stroke-width="1" fill="none"></path></g><g transform="translate(1595.0707985577255 1341.6622609691078) rotate(0 314.51409912109375 22.5)"><text x="0" y="0" font-family="Virgil, Segoe UI Emoji" font-size="36px" fill="#000000" text-anchor="start" style="white-space: pre;" direction="ltr" dominant-baseline="text-before-edge">4. Bind data to the DOM elements</text></g><g stroke-linecap="round"><g transform="translate(1908.5824412398943 393.27327150402994) rotate(0 -0.7113436057483113 60.29240950066969)"><path d="M-0.91 -0.63 C2.35 29.91, -0.24 61.28, -2.07 120.89 M-0.97 -0.56 C-1.39 29.64, -1.03 58.93, -1.19 121.22" stroke="#000000" stroke-width="1" fill="none"></path></g><g transform="translate(1908.5824412398943 393.27327150402994) rotate(0 -0.7113436057483113 60.29240950066969)"><path d="M-12.34 92.39 C-6.66 98.94, -6.17 106.34, -1.47 120.38 M-12.39 92.47 C-9.34 100, -6.07 106.7, -0.58 120.71" stroke="#000000" stroke-width="1" fill="none"></path></g><g transform="translate(1908.5824412398943 393.27327150402994) rotate(0 -0.7113436057483113 60.29240950066969)"><path d="M8.18 92.4 C8.6 98.99, 3.83 106.39, -1.47 120.38 M8.13 92.48 C6.22 100.14, 4.54 106.84, -0.58 120.71" stroke="#000000" stroke-width="1" fill="none"></path></g></g><mask></mask><g stroke-linecap="round"><g transform="translate(1672.2804872681872 649.3081971322155) rotate(0 -137.04656058801766 99.16786528441745)"><path d="M-1.22 -0.99 C-101.67 74.93, -200.95 147.23, -272.86 199.33 M0.24 0.19 C-59.65 43.89, -117.95 85.87, -274.33 199.33" stroke="#000000" stroke-width="1" fill="none"></path></g><g transform="translate(1672.2804872681872 649.3081971322155) rotate(0 -137.04656058801766 99.16786528441745)"><path d="M-259.35 172.99 C-265.41 184.8, -268.17 192, -272.53 200.32 M-257.18 174.76 C-261.35 179.61, -264.88 184.44, -274.73 200.32" stroke="#000000" stroke-width="1" fill="none"></path></g><g transform="translate(1672.2804872681872 649.3081971322155) rotate(0 -137.04656058801766 99.16786528441745)"><path d="M-247.3 189.6 C-257.98 195.29, -265.2 196.33, -272.53 200.32 M-245.13 191.38 C-251.7 192.8, -257.8 194.1, -274.73 200.32" stroke="#000000" stroke-width="1" fill="none"></path></g></g><mask></mask><g stroke-linecap="round"><g transform="translate(2152.475139397053 632.3896094065963) rotate(0 173.5140044784979 111.38113006902984)"><path d="M-1.01 -0.68 C111.43 73.7, 225.38 144.89, 347.13 223.44 M0.28 0.24 C93.65 62.31, 188.09 122.86, 348.03 222.64" stroke="#000000" stroke-width="1" fill="none"></path></g><g transform="translate(2152.475139397053 632.3896094065963) rotate(0 173.5140044784979 111.38113006902984)"><path d="M316.86 215.1 C326.68 219.73, 338.95 220.3, 346.69 223.91 M319.22 216.78 C326.47 218.77, 334.56 220.71, 348.34 222.43" stroke="#000000" stroke-width="1" fill="none"></path></g><g transform="translate(2152.475139397053 632.3896094065963) rotate(0 173.5140044784979 111.38113006902984)"><path d="M327.76 197.72 C334.03 207.9, 342.78 214.09, 346.69 223.91 M330.13 199.4 C334.33 206.01, 339.46 212.67, 348.34 222.43" stroke="#000000" stroke-width="1" fill="none"></path></g></g><mask></mask><g stroke-linecap="round"><g transform="translate(1668.7001546322526 970.4404927070915) rotate(0 243.29370233058864 3.625023353946119)"><path d="M0.74 0.79 C135.09 3.41, 270.34 6.44, 486.62 7.32 M-0.03 -0.41 C128.84 3.65, 257.55 5.89, 486.59 7.66" stroke="#000000" stroke-width="1" fill="none"></path></g><g transform="translate(1668.7001546322526 970.4404927070915) rotate(0 243.29370233058864 3.625023353946119)"><path d="M30.86 -7.13 C20.7 -6.89, 12.69 -2.03, 0.01 0.04 M29.03 -9.97 C21.55 -7.52, 13.69 -4.41, -0.05 0.84" stroke="#000000" stroke-width="1" fill="none"></path></g><g transform="translate(1668.7001546322526 970.4404927070915) rotate(0 243.29370233058864 3.625023353946119)"><path d="M30.51 13.39 C20.3 7.93, 12.38 7.09, 0.01 0.04 M28.68 10.55 C21.17 7.57, 13.41 5.26, -0.05 0.84" stroke="#000000" stroke-width="1" fill="none"></path></g><g transform="translate(1668.7001546322526 970.4404927070915) rotate(0 243.29370233058864 3.625023353946119)"><path d="M460.06 19.51 C465.49 14.66, 473.22 14.03, 485.86 6.91 M458.23 16.68 C465.62 14.44, 472.76 12.32, 485.79 7.71" stroke="#000000" stroke-width="1" fill="none"></path></g><g transform="translate(1668.7001546322526 970.4404927070915) rotate(0 243.29370233058864 3.625023353946119)"><path d="M460.26 -1.01 C465.79 -0.16, 473.46 4.91, 485.86 6.91 M458.43 -3.84 C465.89 -0.66, 472.98 2.66, 485.79 7.71" stroke="#000000" stroke-width="1" fill="none"></path></g></g><mask></mask><g stroke-linecap="round"><g transform="translate(1367.3378911360692 1095.0184681472815) rotate(0 258.49859578520517 99.1327620826994)"><path d="M-0.07 -0.16 C178.6 66.22, 356.23 136.05, 517.07 197.96 M0.1 0.04 C116.67 44.97, 232.8 89.79, 516.83 198.42" stroke="#000000" stroke-width="1" fill="none"></path></g><g transform="translate(1367.3378911360692 1095.0184681472815) rotate(0 258.49859578520517 99.1327620826994)"><path d="M486.66 197.53 C497.96 196.36, 507.29 199.89, 517.99 196.54 M487.08 198.02 C493.36 198.03, 499.92 198.45, 517.4 197.71" stroke="#000000" stroke-width="1" fill="none"></path></g><g transform="translate(1367.3378911360692 1095.0184681472815) rotate(0 258.49859578520517 99.1327620826994)"><path d="M494 178.37 C502.83 183.86, 509.63 194, 517.99 196.54 M494.41 178.86 C499.18 183.16, 504.09 187.9, 517.4 197.71" stroke="#000000" stroke-width="1" fill="none"></path></g></g><mask></mask><g stroke-linecap="round"><g transform="translate(2538.2306575383163 1109.3397986910209) rotate(0 -287.32398571474926 92.16103927415344)"><path d="M0.66 -0.43 C-179.96 59.77, -358.37 116.6, -575.31 184.75 M-0.2 0.3 C-157.81 48.78, -315.05 99.67, -575.28 184.13" stroke="#000000" stroke-width="1" fill="none"></path></g><g transform="translate(2538.2306575383163 1109.3397986910209) rotate(0 -287.32398571474926 92.16103927415344)"><path d="M-549.96 164.6 C-560.88 172.99, -566.99 177.39, -576.02 185.05 M-552.12 166.44 C-557.67 169.95, -563.82 176.07, -575.94 183.5" stroke="#000000" stroke-width="1" fill="none"></path></g><g transform="translate(2538.2306575383163 1109.3397986910209) rotate(0 -287.32398571474926 92.16103927415344)"><path d="M-543.64 184.12 C-556.43 186.49, -564.51 184.82, -576.02 185.05 M-545.79 185.96 C-552.89 184.09, -560.77 184.87, -575.94 183.5" stroke="#000000" stroke-width="1" fill="none"></path></g></g><mask></mask><g stroke-linecap="round"><g transform="translate(1916.899673583938 1426.1992369712646) rotate(0 -0.36601183143488925 74.81306402640985)"><path d="M-0.46 -1.58 C-3.09 48.9, -0.79 92.79, 0.48 149.54 M-0.29 0.09 C1.43 35.61, 1.19 69.53, -0.05 151.2" stroke="#000000" stroke-width="1" fill="none"></path></g><g transform="translate(1916.899673583938 1426.1992369712646) rotate(0 -0.36601183143488925 74.81306402640985)"><path d="M-10.4 121.3 C-8.93 133.51, -3.31 139.16, 1.15 150.37 M-10.22 122.97 C-6.89 130.07, -4.67 135.64, 0.62 152.03" stroke="#000000" stroke-width="1" fill="none"></path></g><g transform="translate(1916.899673583938 1426.1992369712646) rotate(0 -0.36601183143488925 74.81306402640985)"><path d="M10.12 121.57 C5.16 133.73, 4.36 139.3, 1.15 150.37 M10.3 123.24 C8.86 130.42, 6.32 135.92, 0.62 152.03" stroke="#000000" stroke-width="1" fill="none"></path></g></g><mask></mask><g stroke-linecap="round" transform="translate(10 10) rotate(0 1918.533090446188 964.8436762999725)"><path d="M-0.55 -0.22 C1507.64 10.23, 3015.24 9.34, 3836.44 0.14 M0.14 0.06 C967.68 -1.89, 1935.34 -1.89, 3836.68 0.38 M3837.49 0.62 C3843.69 499.06, 3842.52 998.17, 3837.02 1930.13 M3837.18 -0.02 C3833.06 747.53, 3833.33 1495.22, 3837.19 1929.84 M3837.58 1930.21 C2852.69 1923.27, 1869.95 1923.14, 0.73 1929.59 M3837.29 1929.38 C2734.48 1940.49, 1632.29 1941.03, -0.27 1929.55 M-0.33 1930.15 C1.87 1166.41, 1.06 403.08, -0.01 0.21 M-0.26 1929.9 C-2.85 1295.41, -3.37 660.4, -0.25 0.35" stroke="transparent" stroke-width="1" fill="none"></path></g></svg>